<?xml version="1.0" encoding="UTF-8"?>
<svg width="73px" height="73px" viewBox="0 0 73 73" version="1.1" xmlns="http://www.w3.org/2000/svg" xmlns:xlink="http://www.w3.org/1999/xlink">
    <!-- Generator: Sketch 59.1 (86144) - https://sketch.com -->
    <title>BtnClose</title>
    <desc>Created with Sketch.</desc>
    <defs>
        <path d="M27.7042042,9.13675 C28.6537875,8.5295 30.0428292,8.65025 30.8091208,9.40275 L30.8091208,9.40275 L41.4709542,19.90275 C42.1312458,20.552 42.1202042,21.4795 41.4466625,22.12 L41.4466625,22.12 L30.4049958,32.62 C29.9677458,33.03475 29.3405792,33.25 28.7067875,33.25 C28.2099125,33.25 27.7086208,33.117 27.2956625,32.844 C26.3571208,32.22625 26.2312458,31.122 27.0129958,30.38 L27.0129958,30.38 L36.8974958,20.98075 L27.3663292,11.59725 C26.6022458,10.84475 26.7524125,9.74225 27.7042042,9.13675 Z M12.24565,9.13675 C13.1952333,8.53125 14.584275,8.65025 15.3505667,9.40275 L15.3505667,9.40275 L26.0124,19.90275 C26.6704833,20.552 26.66165,21.4795 25.9881083,22.12 L25.9881083,22.12 L14.9464417,32.62 C14.5091917,33.03475 13.882025,33.25 13.2482333,33.25 C12.7513583,33.25 12.2500667,33.117 11.8371083,32.844 C10.8985667,32.22625 10.7726917,31.122 11.5544417,30.38 L11.5544417,30.38 L21.4367333,20.98075 L11.907775,11.59725 C11.1436917,10.84475 11.2960667,9.74225 12.24565,9.13675 Z" id="path-1"></path>
    </defs>
    <g id="Page-1" stroke="none" stroke-width="1" fill="none" fill-rule="evenodd">
        <g id="iPhone-11" transform="translate(-113.000000, -107.000000)">
            <g id="First-Page">
                <g id="BtnClose" transform="translate(114.000000, 108.000000)">
                    <g id="Group">
                        <circle id="Oval" stroke-opacity="0.0998142483" stroke="#979797" stroke-width="0.2" fill-opacity="0.261145105" fill="#86964b" cx="35.5" cy="35.5" r="35.6"></circle>
                        <g id="arrowhead-right" transform="translate(10.000000, 15.000000)">
                            <mask id="mask-2" fill="white">
                                <use xlink:href="#path-1"></use>
                            </mask>
                            <use id="🎨-Icon-Сolor" fill="#0D1C2E" fill-rule="nonzero" xlink:href="#path-1"></use>
                        </g>
                    </g>
                </g>
            </g>
        </g>
    </g>
</svg>