<?xml version="1.0" encoding="UTF-8"?>
<svg width="73px" height="73px" viewBox="0 0 73 73" version="1.1" xmlns="http://www.w3.org/2000/svg" xmlns:xlink="http://www.w3.org/1999/xlink">
    <!-- Generator: Sketch 59.1 (86144) - https://sketch.com -->
    <title>Btn Photo Cam </title>
    <desc>Created with Sketch.</desc>
    <defs>
        <path d="M23.5,30.3541667 C21.8804583,30.3541667 20.5625,29.0362083 20.5625,27.4166667 C20.5625,25.797125 21.8804583,24.4791667 23.5,24.4791667 C25.1195417,24.4791667 26.4375,25.797125 26.4375,27.4166667 C26.4375,29.0362083 25.1195417,30.3541667 23.5,30.3541667 M23.5,20.5625 C19.7204167,20.5625 16.6458333,23.6370833 16.6458333,27.4166667 C16.6458333,31.19625 19.7204167,34.2708333 23.5,34.2708333 C27.2795833,34.2708333 30.3541667,31.19625 30.3541667,27.4166667 C30.3541667,23.6370833 27.2795833,20.5625 23.5,20.5625 M39.1666667,35.25 C39.1666667,36.3290417 38.2893333,37.2083333 37.2083333,37.2083333 L9.79166667,37.2083333 C8.71066667,37.2083333 7.83333333,36.3290417 7.83333333,35.25 L7.83333333,19.5833333 C7.83333333,18.5042917 8.71066667,17.625 9.79166667,17.625 L37.2083333,17.625 C38.2893333,17.625 39.1666667,18.5042917 39.1666667,19.5833333 L39.1666667,35.25 Z M19.5833333,10.7708333 C19.5833333,10.2303333 20.0239583,9.79166667 20.5625,9.79166667 L26.4375,9.79166667 C26.9760417,9.79166667 27.4166667,10.2303333 27.4166667,10.7708333 L27.4166667,13.7083333 L19.5833333,13.7083333 L19.5833333,10.7708333 Z M37.2083333,13.7083333 L31.3333333,13.7083333 L31.3333333,10.7708333 C31.3333333,8.07225 29.1380417,5.875 26.4375,5.875 L20.5625,5.875 C17.8619583,5.875 15.6666667,8.07225 15.6666667,10.7708333 L15.6666667,13.7083333 L9.79166667,13.7083333 C6.55258333,13.7083333 3.91666667,16.34425 3.91666667,19.5833333 L3.91666667,35.25 C3.91666667,38.4890833 6.55258333,41.125 9.79166667,41.125 L37.2083333,41.125 C40.4474167,41.125 43.0833333,38.4890833 43.0833333,35.25 L43.0833333,19.5833333 C43.0833333,16.34425 40.4474167,13.7083333 37.2083333,13.7083333 L37.2083333,13.7083333 Z" id="path-1"></path>
    </defs>
    <g id="Page-1" stroke="none" stroke-width="1" fill="none" fill-rule="evenodd">
        <g id="iPhone-11" transform="translate(-248.000000, -605.000000)">
            <g id="First-Page">
                <g id="Btn-Photo-Cam-" transform="translate(249.000000, 606.000000)">
                    <g id="Btn-Photo-Cam--Copy">
                        <circle id="Oval" stroke-opacity="0.0998142483" stroke="#979797" stroke-width="0.2" fill-opacity="0.261145105" fill="#B8C193" cx="35.5" cy="35.5" r="35.6"></circle>
                        <g id="camera" transform="translate(12.000000, 12.000000)">
                            <mask id="mask-2" fill="white">
                                <use xlink:href="#path-1"></use>
                            </mask>
                            <use id="🎨-Icon-Сolor" fill="#0D1C2E" fill-rule="nonzero" xlink:href="#path-1"></use>
                        </g>
                    </g>
                </g>
            </g>
        </g>
    </g>
</svg>