<?xml version="1.0" encoding="UTF-8"?>
<svg width="73px" height="73px" viewBox="0 0 73 73" version="1.1" xmlns="http://www.w3.org/2000/svg" xmlns:xlink="http://www.w3.org/1999/xlink">
    <!-- Generator: Sketch 59.1 (86144) - https://sketch.com -->
    <title>BtnMenu</title>
    <desc>Created with Sketch.</desc>
    <defs>
        <path d="M41.7735417,33.3333333 C42.8610417,33.3333333 43.750625,34.2229167 43.750625,35.3104167 L43.750625,35.3104167 L43.750625,35.5229167 C43.750625,36.6104167 42.8610417,37.5 41.7735417,37.5 L41.7735417,37.5 L8.225625,37.5 C7.138125,37.5 6.250625,36.6104167 6.250625,35.5229167 L6.250625,35.5229167 L6.250625,35.3104167 C6.250625,34.2229167 7.138125,33.3333333 8.225625,33.3333333 L8.225625,33.3333333 Z M41.7735417,22.9166667 C42.8610417,22.9166667 43.750625,23.80625 43.750625,24.89375 L43.750625,24.89375 L43.750625,25.10625 C43.750625,26.19375 42.8610417,27.0833333 41.7735417,27.0833333 L41.7735417,27.0833333 L8.225625,27.0833333 C7.138125,27.0833333 6.250625,26.19375 6.250625,25.10625 L6.250625,25.10625 L6.250625,24.89375 C6.250625,23.80625 7.138125,22.9166667 8.225625,22.9166667 L8.225625,22.9166667 Z M41.7735417,12.5 C42.8610417,12.5 43.750625,13.3895833 43.750625,14.4770833 L43.750625,14.4770833 L43.750625,14.6895833 C43.750625,15.7770833 42.8610417,16.6666667 41.7735417,16.6666667 L41.7735417,16.6666667 L8.225625,16.6666667 C7.138125,16.6666667 6.250625,15.7770833 6.250625,14.6895833 L6.250625,14.6895833 L6.250625,14.4770833 C6.250625,13.3895833 7.138125,12.5 8.225625,12.5 L8.225625,12.5 Z" id="path-1"></path>
    </defs>
    <g id="Page-1" stroke="none" stroke-width="1" fill="none" fill-rule="evenodd">
        <g id="iPhone-11" transform="translate(-34.000000, -107.000000)">
            <g id="First-Page">
                <g id="BtnMenu" transform="translate(35.000000, 108.000000)">
                    <g id="Btn-Menu">
                        <circle id="Oval" stroke-opacity="0.0998142483" stroke="#979797" stroke-width="0.2" fill-opacity="0.5" fill="#86964b" cx="35.5" cy="35.5" r="35.6"></circle>
                        <g id="menu" transform="translate(10.000000, 10.000000)">
                            <mask id="mask-2" fill="white">
                                <use xlink:href="#path-1"></use>
                            </mask>
                            <use id="🎨-Icon-Сolor" fill="#0D1C2E" fill-rule="nonzero" xlink:href="#path-1"></use>
                        </g>
                    </g>
                </g>
            </g>
        </g>
    </g>
</svg>