<?xml version="1.0" encoding="UTF-8"?>
<svg width="28px" height="28px" viewBox="0 0 28 28" version="1.1" xmlns="http://www.w3.org/2000/svg" xmlns:xlink="http://www.w3.org/1999/xlink">
    <!-- Generator: Sketch 59.1 (86144) - https://sketch.com -->
    <title>edit-fill</title>
    <desc>Created with Sketch.</desc>
    <defs>
        <path d="M26.6976667,17.7978333 L22.206,13.3061667 L25.4526667,10.0578333 L29.9426667,14.5478333 L26.6976667,17.7978333 Z M32.3393333,12.2295 L32.3376667,12.2278333 L27.7743333,7.6645 C26.5393333,6.43283333 24.4176667,6.3745 23.2476667,7.5495 L8.25433333,22.5428333 C7.711,23.0845 7.37433333,23.8045 7.30433333,24.5661667 L6.67266667,31.5161667 C6.62933333,32.0078333 6.80433333,32.4945 7.15433333,32.8445 C7.46933333,33.1595 7.89433333,33.3328333 8.33266667,33.3328333 C8.38433333,33.3328333 8.43433333,33.3311667 8.48433333,33.3261667 L15.4343333,32.6945 C16.1976667,32.6245 16.916,32.2895 17.4576667,31.7478333 L32.4526667,16.7528333 C33.666,15.5361667 33.6143333,13.5061667 32.3393333,12.2295 L32.3393333,12.2295 Z" id="path-1"></path>
    </defs>
    <g id="Page-1" stroke="none" stroke-width="1" fill="none" fill-rule="evenodd">
        <g id="edit-fill" transform="translate(-6.000000, -6.000000)">
            <mask id="mask-2" fill="white">
                <use xlink:href="#path-1"></use>
            </mask>
            <use id="🎨-Icon-Сolor" fill="#0D1C2E" fill-rule="nonzero" xlink:href="#path-1"></use>
        </g>
    </g>
</svg>