<?xml version="1.0" encoding="UTF-8"?>
<svg width="34px" height="39px" viewBox="0 0 34 39" version="1.1" xmlns="http://www.w3.org/2000/svg" xmlns:xlink="http://www.w3.org/1999/xlink">
    <!-- Generator: Sketch 59.1 (86144) - https://sketch.com -->
    <title>trash-fill</title>
    <desc>Created with Sketch.</desc>
    <defs>
        <path d="M16.6666667,8.11425 C16.6666667,7.823625 17.0233333,7.49925 17.5,7.49925 L22.5,7.49925 C22.9766667,7.49925 23.3333333,7.823625 23.3333333,8.11425 L23.3333333,11.24925 L16.6666667,11.24925 L16.6666667,8.11425 Z M35,11.24925 L33.3333333,11.24925 L26.6666667,11.24925 L26.6666667,8.11425 C26.6666667,5.70675 24.7983333,3.74925 22.5,3.74925 L17.5,3.74925 C15.2016667,3.74925 13.3333333,5.70675 13.3333333,8.11425 L13.3333333,11.24925 L6.66666667,11.24925 L5,11.24925 C4.08333333,11.24925 3.33333333,12.094875 3.33333333,13.12425 C3.33333333,14.1555 4.08333333,14.99925 5,14.99925 L6.66666667,14.99925 L6.66666667,35.62425 C6.66666667,38.727375 8.91,41.24925 11.6666667,41.24925 L28.3333333,41.24925 C31.09,41.24925 33.3333333,38.727375 33.3333333,35.62425 L33.3333333,14.99925 L35,14.99925 C35.9166667,14.99925 36.6666667,14.1555 36.6666667,13.12425 C36.6666667,12.094875 35.9166667,11.24925 35,11.24925 L35,11.24925 Z" id="path-1"></path>
    </defs>
    <g id="Page-1" stroke="none" stroke-width="1" fill="none" fill-rule="evenodd">
        <g id="trash-fill" transform="translate(-3.000000, -3.000000)">
            <mask id="mask-2" fill="white">
                <use xlink:href="#path-1"></use>
            </mask>
            <use id="🎨-Icon-Сolor" fill="#5f5e5c" fill-rule="nonzero" xlink:href="#path-1"></use>
        </g>
    </g>
</svg>